<svg width="153" height="42" viewBox="0 0 153 42" fill="none" xmlns="http://www.w3.org/2000/svg">
<g clip-path="url(#clip0_1059_251)">
<path d="M25.1116 25.056C29.6764 22.9818 32.9405 18.6019 32.9405 18.6019C30.9125 20.3468 29.0529 21.4422 27.5763 22.1306C27.5615 21.7142 27.5541 21.3294 27.5541 20.9796C27.5541 20.258 27.5855 19.3939 27.6503 18.3873C27.715 17.3806 27.889 16.4147 28.1721 15.4859C28.4552 14.557 28.8882 13.7705 29.4674 13.1248C30.0484 12.4808 30.8662 12.157 31.9247 12.157C32.9831 12.157 33.7695 12.479 34.3616 13.1248C34.876 13.6854 35.2683 14.359 35.5496 15.1324C36.6376 13.7224 37.9255 11.613 38.9432 9.85514C38.3714 9.1927 37.7108 8.61168 36.9559 8.11578C35.6402 7.25165 33.9638 6.81866 31.9247 6.81866C29.8855 6.81866 28.2109 7.25165 26.8953 8.11578C25.5797 8.97991 24.5416 10.0957 23.7811 11.4631C23.0206 12.8306 22.4914 14.3516 22.1953 16.028C21.8993 17.7045 21.7494 19.355 21.7494 20.9815C21.7494 22.608 21.8974 24.2585 22.1953 25.935C22.2101 26.0182 22.2324 26.0978 22.249 26.1811C22.8596 25.9831 23.4647 25.7425 24.0494 25.4835C24.4103 25.3558 24.7674 25.217 25.1134 25.0597L25.1116 25.056ZM38.6008 12.899C38.8321 12.2847 39.0412 11.7055 39.2226 11.1763C39.8887 9.24266 40.2236 7.96405 40.2236 7.96405C39.774 9.00396 39.3188 9.98652 38.8618 10.9154C38.5971 11.4539 38.3325 11.9738 38.0661 12.4771C33.6085 20.9223 30.4055 23.424 26.7066 25.8036C25.861 26.3476 22.6764 27.7169 22.6764 27.7169C23.0669 28.8882 23.4573 29.706 23.8477 30.4906C23.82 30.5202 23.8015 30.5406 23.8033 30.5424C23.8237 30.535 23.8422 30.5258 23.8607 30.5165C23.8958 30.585 23.9292 30.6553 23.9643 30.7238C23.9643 30.7238 28.6421 27.9334 29.1879 27.53C33.7177 24.1697 36.8578 17.5102 38.599 12.9009L38.6008 12.899ZM40.0701 11.4613C40.0108 11.3539 39.9461 11.2503 39.8832 11.1467C38.9191 14.0518 37.5091 17.9894 36.286 20.1729C36.2934 20.4578 36.299 20.7298 36.299 20.9815C36.299 21.7031 36.2657 22.5673 36.2027 23.5739C36.138 24.5805 35.964 25.5464 35.6809 26.4753C35.3978 27.4042 34.9593 28.1906 34.3653 28.8364C33.7713 29.4822 32.959 29.8041 31.9284 29.8041C31.6675 29.8041 31.4269 29.7782 31.1956 29.7394C31.6582 29.1213 32.254 28.2757 32.7851 27.3727C33.8435 25.5723 34.8612 22.6912 34.8612 22.6912C32.8517 25.9905 31.0735 27.889 29.8633 28.9363C29.0584 29.6339 26.9342 31.4029 26.0682 32.1245C25.8073 32.2929 25.5593 32.4465 25.3391 32.5723C25.8073 33.0441 26.3236 33.4716 26.8972 33.8472C28.2128 34.7113 29.8892 35.1443 31.9265 35.1443C33.9638 35.1443 35.6402 34.7113 36.9577 33.8472C38.2733 32.9831 39.3114 31.8673 40.0719 30.4999C40.8324 29.1324 41.3616 27.6114 41.6577 25.935C41.9537 24.2585 42.1018 22.608 42.1018 20.9815C42.1018 19.355 41.9537 17.7063 41.6577 16.028C41.3616 14.3516 40.8324 12.8306 40.0719 11.4631L40.0701 11.4613ZM44.6646 5.96378C44.6497 5.90642 44.1409 5.1015 43.6376 4.30954L43.7912 3.91356C43.843 3.77848 43.7912 3.6323 43.6746 3.58604C43.558 3.53978 43.4211 3.6138 43.3693 3.74887L43.336 3.83584C42.9548 3.24002 42.6957 2.77187 42.6957 2.77187C42.6957 2.77187 43.0936 1.85963 43.4748 0.912236C43.8559 -0.0370111 42.9437 -0.392285 42.5829 0.566214C42.222 1.52286 41.9001 2.46471 41.9001 2.46471C41.9001 2.46471 41.3931 2.63309 40.7084 2.81628L40.7417 2.72931C40.7935 2.59423 40.7417 2.44805 40.6252 2.40179C40.5086 2.35553 40.3717 2.42955 40.318 2.56463L40.1644 2.96061C39.2596 3.20301 38.3399 3.45466 38.29 3.48612C38.1901 3.54903 37.8681 3.94316 37.8996 3.99868C37.9162 4.02643 38.5527 3.94871 39.2207 3.86915L39.1856 3.95797C39.1763 3.98202 39.1856 4.00793 39.2059 4.01718C39.2263 4.02458 39.2522 4.01163 39.2614 3.98757L39.3114 3.85805C39.3743 3.85064 39.4372 3.84324 39.4983 3.83584L39.4779 3.8895C39.4687 3.91356 39.4779 3.93946 39.4983 3.94871C39.5186 3.95612 39.5445 3.94316 39.5538 3.91911L39.5908 3.82659C39.7166 3.81179 39.8388 3.79883 39.9553 3.78588L39.9183 3.8784C39.9091 3.90245 39.9183 3.92836 39.9387 3.93761C39.959 3.94501 39.9849 3.93206 39.9942 3.90801L40.046 3.77478C40.1718 3.76183 40.2865 3.75072 40.3865 3.74332L40.3532 3.82659C40.3439 3.85064 40.3532 3.87655 40.3735 3.8858C40.3939 3.8932 40.4198 3.88025 40.429 3.8562L40.4753 3.73592C40.6178 3.72667 40.7158 3.72482 40.7454 3.73592C40.9194 3.80253 41.3246 3.96167 41.3246 3.96167C41.3246 3.96167 40.7436 5.56595 40.6455 5.97488C40.6085 6.12847 40.5641 6.35421 40.5271 6.57811C40.1848 6.67248 39.6667 6.81681 39.5686 6.85567C39.4206 6.91303 39.304 6.95929 39.2744 7.02405C39.2448 7.08881 39.156 7.21279 39.2133 7.22204C39.2614 7.22944 40.1348 7.22944 40.4401 7.22944C40.4364 7.29606 40.4401 7.33862 40.4531 7.34232C40.466 7.34787 40.4956 7.31826 40.54 7.26645C40.7639 7.47184 41.4079 8.06212 41.4486 8.08987C41.4985 8.12318 41.5152 7.97145 41.5374 7.90298C41.5596 7.83452 41.5041 7.72165 41.4356 7.57917C41.3894 7.4848 41.1063 7.02775 40.9175 6.72799C41.0415 6.5374 41.1599 6.33941 41.2376 6.20248C41.443 5.83426 42.0999 4.25958 42.0999 4.25958C42.0999 4.25958 42.507 4.41871 42.6791 4.48533C42.7087 4.49643 42.779 4.56489 42.8789 4.66851L42.8327 4.78879C42.8234 4.81284 42.8327 4.83875 42.853 4.848C42.8734 4.8554 42.8993 4.84245 42.9085 4.81839L42.9418 4.73513C43.0103 4.80914 43.088 4.89426 43.1713 4.98863L43.1195 5.12001C43.1102 5.14406 43.1195 5.16997 43.1398 5.17922C43.1602 5.18662 43.1861 5.17367 43.1953 5.14961L43.2324 5.05709C43.3101 5.14406 43.3915 5.23843 43.4729 5.33465L43.4359 5.42717C43.4266 5.45123 43.4359 5.47713 43.4563 5.48638C43.4766 5.49378 43.5025 5.48083 43.5118 5.45678L43.5321 5.40312C43.5728 5.45123 43.6135 5.49749 43.6542 5.5456L43.6043 5.67512C43.595 5.69918 43.6043 5.72508 43.6246 5.73433C43.645 5.74174 43.6709 5.72878 43.6801 5.70473L43.7153 5.61591C44.1538 6.12662 44.572 6.61512 44.6016 6.60587C44.6627 6.58736 44.6905 6.07666 44.6609 5.96378H44.6646Z" fill="url(#paint0_linear_1059_251)"/>
<path d="M0 12.6215H13.543L2.32223 34.678H9.09278L20.0434 12.3902V7.28311H0V12.6215Z" fill="#15375F"/>
<path d="M51.9884 0V42" stroke="#15375F" stroke-width="0.555115" stroke-miterlimit="10"/>
<path d="M123.136 11.7777H118.267L110.729 30.9976L103.148 11.7777H98.2794L90.4856 31.562H93.461C94.2992 31.562 95.0523 31.0476 95.3558 30.2649L100.405 17.2604C100.591 16.8089 100.737 16.2908 100.848 15.7061C100.94 16.2168 101.079 16.7386 101.262 17.2678L103.176 22.188H99.7505L98.3904 25.737H104.584L106.301 30.226C106.614 31.0309 107.389 31.5601 108.253 31.5601H110.951H113.449C114.287 31.5601 115.038 31.0457 115.344 30.2649L120.395 17.2585C120.578 16.807 120.726 16.2889 120.837 15.7042C120.93 16.2149 121.069 16.7367 121.252 17.2659L123.165 22.1861H119.716L118.354 25.7351H124.57L126.292 30.2242C126.605 31.0291 127.38 31.5583 128.245 31.5583H130.931L123.137 11.774L123.136 11.7777Z" fill="#15375F"/>
<path d="M137.463 22.188V25.737H140.172L144.034 30.746C144.43 31.2604 145.042 31.562 145.692 31.562H149.552L144.311 24.9783C147.194 24.055 147.97 21.2165 147.97 18.2207C147.97 17.0143 147.748 15.9781 147.305 15.1121C146.863 14.2461 146.251 13.5763 145.468 13.1063C144.685 12.6363 143.856 12.2958 142.981 12.0886C142.106 11.8813 141.147 11.7777 140.113 11.7777H131.973V31.562H134.151C135.324 31.562 136.212 30.6109 136.212 29.4378V15.5081H140.311C141.29 15.5081 142.154 15.6598 142.713 16.1872C143.29 16.7312 143.619 17.4713 143.619 18.8221C143.619 20.1729 143.379 20.963 142.801 21.507C142.241 22.0344 141.379 22.1861 140.4 22.1861H137.465L137.463 22.188Z" fill="#15375F"/>
<path d="M152.053 12.6307C152.139 12.8121 152.181 13.0138 152.181 13.2358C152.181 13.4578 152.139 13.6595 152.053 13.8409C151.968 14.0222 151.855 14.1665 151.715 14.2776C151.574 14.3867 151.421 14.4719 151.252 14.5311C151.084 14.5903 150.914 14.6217 150.74 14.6217C150.566 14.6217 150.395 14.5921 150.227 14.5311C150.059 14.4719 149.905 14.3867 149.764 14.2776C149.624 14.1684 149.511 14.0222 149.426 13.8409C149.341 13.6595 149.298 13.4578 149.298 13.2358C149.298 13.0138 149.341 12.8121 149.426 12.6307C149.511 12.4494 149.624 12.3051 149.764 12.194C149.905 12.0849 150.059 11.9997 150.227 11.9405C150.395 11.8813 150.566 11.8499 150.74 11.8499C150.914 11.8499 151.084 11.8795 151.252 11.9405C151.421 11.9997 151.574 12.0849 151.715 12.194C151.855 12.3032 151.968 12.4494 152.053 12.6307ZM149.531 12.6825C149.454 12.8472 149.415 13.0304 149.415 13.2358C149.415 13.4412 149.454 13.6244 149.531 13.7891C149.609 13.9537 149.711 14.087 149.838 14.1887C149.966 14.2905 150.107 14.3701 150.26 14.4237C150.414 14.4793 150.573 14.5052 150.736 14.5052C150.899 14.5052 151.058 14.4774 151.211 14.4237C151.365 14.3682 151.508 14.2905 151.633 14.1887C151.761 14.087 151.863 13.9537 151.941 13.7891C152.018 13.6244 152.057 13.4412 152.057 13.2358C152.057 13.0304 152.018 12.8472 151.941 12.6825C151.863 12.5178 151.759 12.3846 151.633 12.2829C151.506 12.1811 151.365 12.1015 151.211 12.0479C151.058 11.9923 150.899 11.9664 150.736 11.9664C150.573 11.9664 150.414 11.9942 150.26 12.0479C150.107 12.1034 149.966 12.1811 149.838 12.2829C149.711 12.3846 149.609 12.5178 149.531 12.6825ZM150.425 13.9852H150.196V12.4827H150.841C150.936 12.4827 151.023 12.4938 151.102 12.5178C151.182 12.5401 151.254 12.59 151.319 12.664C151.384 12.738 151.417 12.8343 151.417 12.9545C151.417 13.184 151.308 13.3302 151.088 13.3912L151.508 13.9871H151.243L150.856 13.4245H150.425V13.9871V13.9852ZM150.425 12.7029V13.2006H150.819C150.871 13.2006 150.912 13.1988 150.941 13.1951C150.973 13.1914 151.01 13.1821 151.054 13.171C151.099 13.1581 151.132 13.134 151.156 13.097C151.178 13.06 151.191 13.0119 151.191 12.9527C151.191 12.8935 151.18 12.8454 151.156 12.8084C151.134 12.7714 151.099 12.7473 151.054 12.7343C151.01 12.7214 150.973 12.714 150.941 12.7103C150.91 12.7066 150.869 12.7047 150.819 12.7047H150.425V12.7029Z" fill="#15375F"/>
<path d="M62.258 20.9556C62.2062 20.9611 62.1655 20.9019 62.2006 20.8557L66.0846 15.7838C66.2197 15.6024 66.3955 15.4581 66.5953 15.3582C66.7914 15.2546 67.0116 15.1954 67.2392 15.1917L73.6231 14.9826C73.6823 14.9826 73.7063 15.0492 73.6712 15.0862C73.7526 15.0196 73.747 14.89 73.6471 14.8419C72.6516 14.3516 71.7394 13.9852 71.7394 13.9852C70.0296 13.3135 67.4372 12.2458 65.1372 12.0645C65.0558 12.059 64.9744 12.0738 64.917 12.0978C64.8633 12.1293 64.8134 12.1737 64.7708 12.2421C63.5514 14.2535 62.9315 16.9625 62.4837 18.7444C62.4837 18.7444 62.2524 19.701 62.0711 20.7946C62.0526 20.9038 62.1544 20.9834 62.2561 20.9556H62.258Z" fill="#22B0E6"/>
<path d="M73.6231 14.9807L67.2392 15.1898C67.0116 15.1935 66.7933 15.2527 66.5953 15.3563C66.3973 15.4563 66.2197 15.6006 66.0846 15.7819L62.2006 20.8538C62.1636 20.9019 62.2062 20.9593 62.258 20.9537C62.2691 20.95 62.2784 20.9482 62.2895 20.9426L67.9664 18.019L73.6471 15.101C73.6582 15.0954 73.6656 15.088 73.6749 15.0825C73.71 15.0436 73.686 14.977 73.6268 14.9789L73.6231 14.9807Z" fill="#0064A3"/>
<path d="M68.1256 31.4103L65.6757 25.5112C65.585 25.3022 65.548 25.0783 65.5609 24.8562C65.5702 24.6342 65.6275 24.414 65.7386 24.216L68.7491 18.5816C68.7769 18.5297 68.8472 18.5427 68.8639 18.5908C68.8472 18.4872 68.7306 18.428 68.64 18.489C67.7185 19.1071 66.9432 19.7121 66.9432 19.7121C65.5073 20.8575 63.285 22.5691 61.9786 24.4695C61.9323 24.5361 61.9046 24.6157 61.8972 24.6767C61.8972 24.7378 61.9101 24.8044 61.9508 24.8747C63.0833 26.936 65.1187 28.829 66.438 30.1057C66.438 30.1057 67.1504 30.7848 68.0071 31.4898C68.0923 31.5601 68.2125 31.512 68.2403 31.4103C68.2199 31.4584 68.1478 31.4639 68.1256 31.4103Z" fill="#22B0E6"/>
<path d="M68.751 18.5797L65.7404 24.2141C65.6312 24.4121 65.572 24.6323 65.5628 24.8544C65.5498 25.0764 65.5868 25.3003 65.6775 25.5094L68.1274 31.4084C68.1496 31.4639 68.2218 31.4565 68.2421 31.4084C68.2458 31.3973 68.2477 31.3881 68.2477 31.3751L68.5548 24.9968L68.8676 18.6186C68.8676 18.6075 68.8676 18.5964 68.8639 18.5853C68.8472 18.5353 68.7769 18.5223 68.7491 18.576L68.751 18.5797Z" fill="#0064A3"/>
<path d="M80.2289 31.5564L73.8951 30.7275C73.6693 30.7016 73.4565 30.6201 73.2715 30.498C73.0827 30.3796 72.9218 30.2186 72.8052 30.0243L69.4319 24.599C69.4005 24.549 69.4467 24.4935 69.4985 24.5046C69.4005 24.4676 69.2913 24.5379 69.2987 24.6471C69.3727 25.7536 69.5096 26.7269 69.5096 26.7269C69.7817 28.544 70.1536 31.3233 71.1472 33.405C71.1824 33.4771 71.2361 33.5419 71.286 33.5789C71.3397 33.6085 71.4044 33.6307 71.484 33.6326C73.8358 33.6825 76.4911 32.8647 78.2583 32.3632C78.2583 32.3632 79.202 32.0856 80.24 31.6952C80.3436 31.6564 80.3621 31.5287 80.2881 31.4528C80.3196 31.4954 80.2881 31.5601 80.2289 31.5527V31.5564Z" fill="#22B0E6"/>
<path d="M69.4301 24.6009L72.8033 30.0262C72.9199 30.2205 73.0809 30.3815 73.2696 30.4999C73.4547 30.622 73.6693 30.7034 73.8932 30.7293L80.2271 31.5583C80.2863 31.5657 80.3159 31.5009 80.2863 31.4584C80.2789 31.451 80.2715 31.4436 80.2604 31.4362L74.8906 27.9815L69.5244 24.5213C69.5152 24.5157 69.5041 24.512 69.4948 24.5065C69.4449 24.4954 69.3968 24.5509 69.4282 24.6009H69.4301Z" fill="#0064A3"/>
<path d="M86.35 21.0463C86.4018 21.0407 86.4425 21.0999 86.4073 21.1462L82.5234 26.2181C82.3883 26.3994 82.2125 26.5438 82.0127 26.6437C81.8165 26.7473 81.5963 26.8065 81.3688 26.8102L74.9849 27.0193C74.9257 27.0193 74.9017 26.9527 74.9368 26.9157C74.8554 26.9823 74.861 27.1118 74.9609 27.1599C75.9564 27.6503 76.8686 28.0167 76.8686 28.0167C78.5784 28.6884 81.1708 29.756 83.4708 29.9374C83.5522 29.9429 83.6336 29.9281 83.691 29.9041C83.7446 29.8726 83.7946 29.8282 83.8372 29.7597C85.0566 27.7484 85.6764 25.0394 86.1242 23.2575C86.1242 23.2575 86.3555 22.3008 86.5369 21.2073C86.5554 21.0981 86.4536 21.0185 86.3518 21.0463H86.35Z" fill="#22B0E6"/>
<path d="M74.9849 27.0212L81.3688 26.8121C81.5964 26.8084 81.8147 26.7491 82.0127 26.6455C82.2107 26.5456 82.3883 26.4013 82.5234 26.2199L86.4073 21.148C86.4444 21.0999 86.4018 21.0426 86.35 21.0481C86.3389 21.0518 86.3296 21.0537 86.3185 21.0592L80.6416 23.9828L74.9609 26.9009C74.9498 26.9064 74.9424 26.9138 74.9331 26.9194C74.898 26.9582 74.922 27.0249 74.9812 27.023L74.9849 27.0212Z" fill="#0064A3"/>
<path d="M86.6553 17.1272C85.5229 15.0658 83.4874 13.1729 82.1681 11.8961C82.1681 11.8961 81.4557 11.217 80.599 10.512C80.5139 10.4417 80.3936 10.4898 80.3658 10.5916C80.3862 10.5435 80.4584 10.5379 80.4806 10.5916L82.9305 16.4906C83.0211 16.6997 83.0581 16.9236 83.0452 17.1457C83.0359 17.3677 82.9786 17.5879 82.8676 17.7859L79.857 23.4203C79.8292 23.4721 79.7589 23.4592 79.7423 23.4111C79.7589 23.5147 79.8755 23.5739 79.9662 23.5128C80.8876 22.8948 81.663 22.2897 81.663 22.2897C83.0989 21.1443 85.3212 19.4327 86.6275 17.5324C86.6738 17.4658 86.7016 17.3862 86.709 17.3251C86.709 17.2641 86.696 17.1975 86.6553 17.1272Z" fill="#22B0E6"/>
<path d="M79.857 23.4222L82.8676 17.7877C82.9767 17.5897 83.0359 17.3696 83.0452 17.1475C83.0582 16.9255 83.0211 16.7016 82.9305 16.4925L80.4806 10.5935C80.4584 10.5379 80.3862 10.5453 80.3658 10.5935C80.3621 10.6046 80.3603 10.6138 80.3603 10.6268L80.0531 17.005L79.7404 23.3833C79.7404 23.3944 79.7404 23.4055 79.7441 23.4166C79.7608 23.4666 79.8311 23.4795 79.8588 23.4259L79.857 23.4222Z" fill="#0064A3"/>
<path d="M68.3791 10.4473L74.7129 11.2762C74.9387 11.3022 75.1515 11.3836 75.3365 11.5057C75.5252 11.6241 75.6862 11.7851 75.8028 11.9794L79.1761 17.4047C79.2075 17.4547 79.1612 17.5102 79.1094 17.4991C79.2075 17.5361 79.3167 17.4658 79.3093 17.3566C79.2353 16.2501 79.0983 15.2768 79.0983 15.2768C78.8263 13.4597 78.4544 10.6804 77.4607 8.59874C77.4256 8.52658 77.3719 8.46181 77.322 8.4248C77.2683 8.3952 77.2035 8.37299 77.124 8.37114C74.7721 8.32118 72.1168 9.13905 70.3497 9.64051C70.3497 9.64051 69.406 9.91806 68.368 10.3085C68.2643 10.3474 68.2458 10.475 68.3198 10.5509C68.2884 10.5083 68.3199 10.4436 68.3791 10.451V10.4473Z" fill="#22B0E6"/>
<path d="M79.1761 17.4029L75.8028 11.9775C75.6862 11.7832 75.5252 11.6223 75.3365 11.5038C75.1515 11.3817 74.9368 11.3003 74.7129 11.2744L68.3791 10.4454C68.3199 10.438 68.2902 10.5028 68.3198 10.5453C68.3273 10.5527 68.3346 10.5601 68.3458 10.5675L73.7156 14.0222L79.0817 17.4824C79.0909 17.488 79.102 17.4917 79.1113 17.4972C79.1612 17.5083 79.2094 17.4528 79.1779 17.4029H79.1761Z" fill="#0064A3"/>
</g>
<defs>
<linearGradient id="paint0_linear_1059_251" x1="20.5985" y1="26.1607" x2="48.3043" y2="13.0341" gradientUnits="userSpaceOnUse">
<stop offset="0.34" stop-color="#15375F"/>
<stop offset="0.35" stop-color="#153F68"/>
<stop offset="0.43" stop-color="#19618E"/>
<stop offset="0.51" stop-color="#1C7DAE"/>
<stop offset="0.59" stop-color="#1E94C6"/>
<stop offset="0.68" stop-color="#20A3D8"/>
<stop offset="0.77" stop-color="#21ADE2"/>
<stop offset="0.88" stop-color="#22B0E6"/>
</linearGradient>
<clipPath id="clip0_1059_251">
<rect width="152.181" height="42" fill="white"/>
</clipPath>
</defs>
</svg>
